<svg width="40" height="40" viewBox="0 0 40 40" fill="none" xmlns="http://www.w3.org/2000/svg">
<path d="M24.5939 24.0186L26.1839 21.2647C26.8911 20.0369 27.141 18.5985 26.8893 17.2041C26.6376 15.8098 25.9006 14.5495 24.8088 13.6465L25.3538 12.7025C25.4864 12.4728 25.5223 12.1999 25.4537 11.9437C25.3851 11.6875 25.2175 11.4691 24.9878 11.3365C24.7581 11.2039 24.4851 11.1679 24.229 11.2366C23.9728 11.3052 23.7544 11.4728 23.6217 11.7025L23.0767 12.6465C21.7488 12.1525 20.2888 12.1443 18.9555 12.6235C17.6221 13.1027 16.5013 14.0384 15.7916 15.2647L14.2016 18.0187C13.5931 17.9055 12.9645 17.9834 12.402 18.2416C11.8394 18.4998 11.3705 18.9257 11.0596 19.4608L10.0596 21.1929C9.92696 21.4226 9.89103 21.6955 9.95967 21.9517C10.0283 22.2079 10.1959 22.4263 10.4256 22.5589L13.1449 24.1289C12.9207 24.9779 12.982 25.8771 13.3195 26.6878C13.657 27.4984 14.2518 28.1755 15.0123 28.6146C15.7727 29.0536 16.6565 29.2302 17.5273 29.1172C18.3981 29.0041 19.2075 28.6076 19.8306 27.9889L22.5499 29.5589C22.7796 29.6915 23.0526 29.7275 23.3088 29.6588C23.5649 29.5902 23.7834 29.4226 23.916 29.1929L24.916 27.4608C25.2239 26.9239 25.3583 26.3049 25.3006 25.6887C25.243 25.0724 24.9961 24.4891 24.5939 24.0186ZM17.5237 16.2647C18.0541 15.346 18.9278 14.6756 19.9525 14.401C20.9772 14.1264 22.069 14.2702 22.9878 14.8006C23.9065 15.331 24.5769 16.2047 24.8515 17.2294C25.126 18.2541 24.9823 19.346 24.4519 20.2647L22.9519 22.8628L16.0237 18.8628L17.5237 16.2647ZM15.9878 26.9249C15.6866 26.7486 15.4367 26.4965 15.2631 26.1937C15.0895 25.8909 14.9982 25.548 14.9982 25.1989L17.9773 26.9189C17.6751 27.0934 17.3324 27.1858 16.9834 27.1869C16.6343 27.1879 16.2911 27.0976 15.9878 26.9249ZM22.6839 27.3269L12.2916 21.3269L12.7916 20.4608C12.9242 20.2312 13.1426 20.0636 13.3988 19.9949C13.655 19.9263 13.928 19.9622 14.1576 20.0948L22.8179 25.0948C23.0476 25.2274 23.2152 25.4458 23.2838 25.702C23.3525 25.9582 23.3165 26.2312 23.1839 26.4608L22.6839 27.3269Z" fill="#409FFF"/>
<circle cx="31.5" cy="8.5" r="3.5" fill="#FF3843"/>
</svg>
